<?xml version="1.0" encoding="utf-8"?>
<!-- Generator: Adobe Illustrator 27.5.0, SVG Export Plug-In . SVG Version: 6.00 Build 0)  -->
<svg version="1.1" id="Layer_1" xmlns="http://www.w3.org/2000/svg" xmlns:xlink="http://www.w3.org/1999/xlink" x="0px" y="0px"
	 viewBox="0 0 278.25 315.765" style="enable-background:new 0 0 278.25 315.765;" xml:space="preserve">
<g>
	<g>
		<path style="fill:#8E5E25;" d="M41.435,157.839c0,0-7.931,11.687-1.044,27.34c-8.765,8.348-10.644,16.696-5.844,25.67
			c-9.183,12.522-35.384,47.689,10.635,90.267c0,0-2.581-3.871-2.581-11.612c9.892,9.462,9.892,12.903,25.805,18.064
			c-6.021-9.032-3.871-10.752-3.871-10.752s0.538,4.408,26.343,13.01c15.806,3.548,42.901-2.688,56.234-16.021
			c-1.29,8.602-6.881,11.612-6.881,11.612s12.903-3.011,18.924-12.042c3.871,7.311,0.86,10.322,0.86,10.322
			s38.278-10.322,48.17-23.655c0,0,0,7.742-3.441,10.752c9.892-3.871,12.473-10.322,12.473-10.322s16.773,3.871,18.924,14.623
			c15.053-6.021,20.214-18.494,15.913-32.687c7.312,3.441,6.451-22.795-1.29-30.966c12.042,2.15,18.924,21.504,17.634,31.826
			c10.752-14.193,5.591-35.697-15.913-51.18c-21.504-15.483-36.987-15.913-36.557-45.159c14.193-27.095,11.397-74.835-10.86-100.963
			L41.435,157.839z"/>
		<path style="opacity:0.55;fill:#69350F;" d="M75.421,214.387c0,0-6.705,18.103-6.705,34.195
			c-7.04-18.103,2.347-35.871,2.347-35.871c-22.797,18.774-22.126,41.57-22.126,41.57c-5.699-23.132,13.41-47.605,13.41-47.605
			c-17.098,14.751-21.12,32.184-20.907,51.293c-8.838-15.086-4.907-29.166,3.474-37.883s11.398-21.791,11.398-21.791
			s-3.353,6.37-13.745,18.103c6.37-8.046,12.404-19.779,10.843-28.122c-2.232,9.761-10.507,22.087-21.57,30.468
			c-3.735,2.829-6.894,7.532-9.431,12.584c3.556-9.176,8.798-16.261,11.988-20.611c-0.428-0.799-0.783-1.592-1.104-2.382
			c16.383-14.554,16.72-33.544,16.72-33.544s-1.746,8.752-10.462,14.451c-2.743,1.793-4.985,4.117-6.764,6.513
			c1.252-3.602,3.723-7.156,7.454-10.709c-0.462-1.049-0.852-2.079-1.187-3.09c7.95-7.914,6.981-17.951,3.514-18.529
			c-1.463-0.244-3.147,1.421-4.698,3.636c1.01-5.805,3.415-9.358,3.415-9.358l163.633-91.872
			c8.176,9.598,13.715,22.115,16.762,35.451c-0.99-2.51-2.071-4.726-3.23-6.335c3.242,21.07-0.076,38.746-13.49,59.892
			c7.655-14.511,12.518-39.146,8.952-55.029c0,0,0,26.58-11.021,52.188c-11.021,25.608-12.642,43.112-11.345,57.699
			c-3.89-15.235,2.269-43.112,2.269-43.112s-15.559,34.36-2.269,61.913c10.373,20.097,18.152,20.746,27.229,26.256
			c9.076,5.511,19.125,10.697,22.042,21.718c1.945-12.642-9.4-35.332-23.015-43.76c-13.614-8.428-16.856-24.96-11.669-42.788
			c0,17.828,7.131,29.498,7.131,29.498s-5.186-13.614,0.648-23.015c0.973,16.856,9.725,30.794,21.718,36.953
			c11.993,6.159,16.207,18.152,16.207,18.152s3.89-19.773-18.801-34.36c12.866,0.942,42.742,10.693,35.814,45.135
			c-0.198,0.284-0.392,0.569-0.603,0.848c1.29-10.322-5.591-29.676-17.633-31.826c7.742,8.172,8.602,34.407,1.29,30.966
			c4.301,14.193-0.86,26.665-15.913,32.686c-2.15-10.752-18.924-14.623-18.924-14.623s-2.581,6.451-12.472,10.322
			c3.441-3.011,3.441-10.752,3.441-10.752c-9.892,13.333-48.17,23.655-48.17,23.655s3.011-3.011-0.86-10.322
			c-6.021,9.032-18.924,12.042-18.924,12.042s5.591-3.011,6.881-11.612c-13.333,13.333-40.428,19.569-56.234,16.021
			c-25.805-8.602-26.343-13.01-26.343-13.01s-2.15,1.72,3.871,10.752c-15.913-5.161-15.913-8.602-25.805-18.064
			c0,7.742,2.58,11.612,2.58,11.612c-19.782-18.303-26.213-35.234-26.393-49.588c0.062-0.03,0.105,0.032,0.126,0.202
			c0.335,2.682,12.7,27.19,17.698,31.251c-4.296-13.431,3.186-22.623,3.186-22.623S36.87,279.68,56.11,295.072
			c-6.413-16.675-3.669-35.569-3.669-35.569s-2.958,14.191,10.083,25.522c0,0-6.825-17.255-0.847-40.801
			c0,0-7.844,25.834,16.136,44.009C77.812,288.232,65.963,256.402,75.421,214.387z"/>
		<path style="fill:#5A320A;" d="M100.553,311.028c-3.542,0-6.837-0.317-9.726-0.965c-21.163-7.052-25.447-11.331-26.313-12.722
			c-0.27,0.828-0.359,3.41,4.096,10.092c0.057,0.086,0.054,0.199-0.009,0.281c-0.062,0.081-0.17,0.115-0.268,0.084
			c-12.353-4.007-15.207-7.03-20.39-12.516c-1.434-1.518-3.047-3.227-5.094-5.204c0.122,7.188,2.51,10.867,2.535,10.904
			c0.068,0.102,0.049,0.24-0.044,0.319c-0.094,0.081-0.232,0.076-0.322-0.007C25.39,283.134,16.6,264.17,18.894,244.929
			c1.872-15.7,10.616-27.621,15.313-34.026l0.056-0.075c-4.741-8.979-2.83-17.39,5.839-25.707
			c-3.511-8.081-3.033-15.078-2.008-19.536c1.12-4.867,3.059-7.761,3.14-7.882c0.021-0.031,0.049-0.057,0.082-0.075l163.633-91.872
			c0.098-0.058,0.227-0.035,0.303,0.054c10.51,12.338,17.312,30.185,19.156,50.254c1.746,19.008-1.257,37.567-8.238,50.927
			c-0.313,22.328,8.833,27.79,22.67,36.057c4.139,2.472,8.829,5.274,13.787,8.844c11.938,8.595,19.432,19.446,21.102,30.555
			c1.164,7.744-0.612,14.994-5.138,20.969c-0.065,0.086-0.185,0.119-0.284,0.078c-0.102-0.042-0.163-0.146-0.15-0.255
			c1.198-9.583-4.902-28.606-16.727-31.41c5.822,6.993,7.676,24.872,4.066,29.864c-0.814,1.124-1.865,1.505-3.068,1.124
			c4.224,14.62-1.804,26.747-16.196,32.505c-0.068,0.026-0.142,0.022-0.206-0.012c-0.063-0.034-0.108-0.095-0.122-0.166
			c-1.971-9.858-16.687-13.912-18.548-14.386c-0.532,1.115-3.605,6.775-12.522,10.263c-0.108,0.044-0.234,0.001-0.296-0.099
			c-0.061-0.1-0.041-0.231,0.047-0.309c2.703-2.363,3.23-7.837,3.333-9.828c-4.344,5.376-13.569,10.86-27.438,16.312
			c-10.695,4.203-20.305,6.81-20.4,6.835c-0.106,0.027-0.217-0.017-0.273-0.112c-0.055-0.095-0.04-0.215,0.037-0.293
			c0.028-0.029,2.73-2.897-0.716-9.679c-6.099,8.748-18.711,11.776-18.84,11.806c-0.118,0.029-0.239-0.037-0.281-0.15
			c-0.044-0.114,0.005-0.242,0.111-0.299c0.054-0.029,5.183-2.888,6.635-10.704C135.689,305.119,115.845,311.027,100.553,311.028z
			 M64.537,296.574c0.031,0,0.062,0.006,0.092,0.018c0.081,0.033,0.138,0.108,0.149,0.195c0.008,0.035,1.122,4.457,26.18,12.809
			c15.415,3.459,42.65-2.626,55.985-15.961c0.074-0.074,0.189-0.092,0.28-0.046c0.094,0.047,0.147,0.15,0.131,0.253
			c-0.928,6.188-4.103,9.55-5.843,10.966c3.44-1.048,12.679-4.421,17.444-11.567c0.047-0.07,0.133-0.108,0.214-0.108
			c0.085,0.005,0.162,0.054,0.202,0.129c2.998,5.662,1.954,8.801,1.247,10.016c5.131-1.451,38.359-11.229,47.374-23.379
			c0.064-0.083,0.176-0.117,0.271-0.085c0.099,0.033,0.167,0.126,0.167,0.23c0,0.295-0.034,6.693-2.733,10.099
			c8.818-3.814,11.272-9.698,11.297-9.759c0.045-0.111,0.158-0.177,0.28-0.146c0.168,0.038,16.655,3.959,19.046,14.525
			c14.096-5.759,19.891-17.808,15.504-32.284c-0.027-0.092,0.001-0.191,0.074-0.254c0.071-0.064,0.174-0.077,0.261-0.036
			c1.195,0.565,2.159,0.308,2.945-0.781c3.307-4.573,1.986-22.938-4.515-29.799c-0.072-0.076-0.087-0.189-0.037-0.282
			c0.05-0.091,0.152-0.142,0.256-0.123c12.19,2.177,18.69,21.02,17.92,31.206c4.057-5.727,5.62-12.584,4.522-19.891
			c-1.65-10.978-9.075-21.715-20.907-30.233c-4.94-3.558-9.621-6.354-13.752-8.822c-13.994-8.36-23.239-13.882-22.906-36.538
			c0.001-0.038,0.01-0.075,0.027-0.109c6.959-13.284,9.952-31.767,8.212-50.709c-1.826-19.887-8.542-37.575-18.913-49.831
			L41.605,158.022c-0.254,0.392-2.022,3.237-3.044,7.694c-1.011,4.41-1.475,11.351,2.052,19.366c0.042,0.094,0.02,0.203-0.054,0.273
			c-8.637,8.226-10.534,16.528-5.797,25.38c0.044,0.083,0.037,0.183-0.019,0.258l-0.145,0.198
			c-4.671,6.368-13.367,18.223-15.223,33.796c-2.234,18.734,6.153,37.224,24.927,54.976c-0.778-1.729-1.943-5.197-1.943-10.458
			c0-0.098,0.058-0.185,0.147-0.223c0.091-0.039,0.192-0.019,0.263,0.047c2.253,2.156,3.992,3.996,5.526,5.621
			c5.033,5.329,7.848,8.309,19.527,12.171c-5.507-8.462-3.672-10.308-3.438-10.495C64.429,296.592,64.483,296.574,64.537,296.574z"
			/>
	</g>
	<g>
		<path style="fill:#5A320A;" d="M248.178,277.589c-0.162-2.866-0.576-5.714-1.219-8.511c-1.265-5.501-3.428-10.793-6.417-15.584
			c-1.5-2.404-3.203-4.685-5.096-6.794c-2.193-2.443-4.63-4.648-6.874-7.042c-4.07-4.342-7.384-9.332-9.852-14.744
			c-2.727-5.982-4.348-12.466-4.761-19.027c-0.009-0.147-0.256,0.071-0.253,0.17c0.32,9.039,2.997,18.002,7.648,25.771
			c-1.941-2.117-3.81-4.289-5.47-6.67c-2.633-3.777-4.833-7.855-6.536-12.133c-1.882-4.728-3.265-9.762-3.31-14.88
			c-0.047-5.356,1.661-10.56,3.359-15.579c1.889-5.584,4.204-11.005,6.624-16.376c0.11-0.245-0.193-0.067-0.255,0.046
			c-2.613,4.765-4.746,9.77-6.59,14.879c-1.785,4.944-3.589,10.115-3.963,15.393c-0.371,5.236,0.804,10.469,2.554,15.376
			c1.592,4.464,3.724,8.734,6.321,12.697c2.788,4.253,6.121,8.469,10.168,11.602c0.466,0.626,0.943,1.244,1.437,1.848
			c2.051,2.509,4.378,4.756,6.651,7.059c2.11,2.138,4.09,4.384,5.819,6.845c3.263,4.645,5.714,9.855,7.259,15.315
			c0.879,3.107,1.458,6.298,1.726,9.516c0.271,3.263,0.121,6.484-0.111,9.743c-0.036,0.503,0.786-0.105,0.833-0.396
			C248.322,283.315,248.339,280.414,248.178,277.589z"/>
		<path style="fill:#5A320A;" d="M251.775,261.995c-1.5-3.208-3.54-6.181-5.764-8.928c-2.255-2.786-4.82-5.339-7.621-7.576
			c-1.6-1.278-3.286-2.441-5.03-3.512c-0.123-0.076-0.388,0.245-0.278,0.32c5.865,4.014,11.044,9.131,15.034,15.017
			c1.126,1.661,2.146,3.384,3.16,5.114C251.412,262.667,251.87,262.198,251.775,261.995z"/>
		<path style="fill:#5A320A;" d="M207.859,241.453c-5.863-4.834-10.118-11.132-12.688-18.264c-2.597-7.205-3.56-14.964-3.307-22.599
			c0.316-9.517,2.467-18.884,4.845-28.065c2.442-9.426,5.145-18.776,6.894-28.365c1.79-9.818,2.814-19.785,2.922-29.767
			c0.013-1.221,0.014-2.443,0.004-3.665c-0.001-0.179-0.308,0.084-0.311,0.207c-0.221,10.175-1.167,20.347-2.889,30.378
			c-1.672,9.737-4.291,19.237-6.836,28.772c-2.514,9.419-4.833,18.957-5.48,28.715c-0.505,7.613,0.188,15.361,2.41,22.676
			c2.161,7.111,5.913,14.081,11.576,19.015c0.701,0.611,1.445,1.176,2.198,1.721C207.512,242.441,208.155,241.698,207.859,241.453z"
			/>
		<path style="fill:#5A320A;" d="M211.316,251.2c-6.737-4.892-12.471-10.925-16.647-18.153c-4.141-7.169-6.767-15.207-7.563-23.452
			c-0.442-4.574-0.349-9.238,0.399-13.776c0.023-0.142-0.253,0.061-0.27,0.152c-1.521,8.205-1.086,16.604,1.174,24.634
			c2.27,8.066,6.293,15.625,11.765,21.975c3.072,3.565,6.589,6.762,10.59,9.255C211.029,252,211.561,251.378,211.316,251.2z"/>
		<path style="fill:#5A320A;" d="M195.167,149.328c-1.83,7.546-4.596,14.861-8.184,21.746c-3.591,6.891-8.047,13.332-13.201,19.145
			c-2.892,3.261-6.006,6.328-9.271,9.215c-0.302,0.267-0.264,0.811,0.179,0.452c6.122-4.974,11.44-10.89,15.993-17.321
			c4.536-6.407,8.266-13.402,11.058-20.738c1.568-4.119,2.824-8.347,3.775-12.649C195.574,148.913,195.201,149.185,195.167,149.328z
			"/>
		<path style="fill:#5A320A;" d="M180.35,250.04c-1.896-2.082-3.598-4.357-4.907-6.856c-1.295-2.472-2.242-5.128-2.873-7.844
			c-1.422-6.114-1.135-12.508-0.001-18.644c0.676-3.659,1.623-7.256,2.722-10.809c0.068-0.222-0.265,0.017-0.304,0.134
			c-3.926,11.845-6.388,25.212-0.759,36.956c1.377,2.874,3.187,5.561,5.611,7.652C180.053,250.814,180.542,250.25,180.35,250.04z"/>
		<path style="fill:#5A320A;" d="M178.222,229.359c0.027-8.415,1.74-16.727,3.999-24.801c1.302-4.655,2.754-9.263,4.229-13.865
			c0.069-0.216-0.259,0.018-0.298,0.132c-2.813,8.284-5.644,16.598-7.281,25.211c-1.52,7.998-2.021,16.259-0.583,24.308
			c0.789,4.415,2.136,8.702,4.268,12.657c0.172,0.32,0.785-0.283,0.651-0.557C179.697,245.242,178.196,237.339,178.222,229.359z"/>
		<path style="fill:#5A320A;" d="M170.411,245.735c-5.935-7.805-8.209-18.005-6.103-27.586c0.587-2.672,1.521-5.266,2.79-7.691
			c0.09-0.171-0.138-0.047-0.185,0.037c-4.847,8.727-5.178,19.592-1.264,28.734c1.093,2.553,2.524,4.902,4.304,7.032
			C170.102,246.439,170.565,245.938,170.411,245.735z"/>
		<path style="fill:#5A320A;" d="M48.173,169.462c-0.715,3.022-1.975,5.877-3.48,8.584c-1.446,2.6-3.232,4.996-4.659,7.604
			c-0.172,0.314,0.219,0.246,0.352,0.081c1.951-2.409,3.584-5.145,5.038-7.876c1.438-2.702,2.58-5.553,3.162-8.566
			C48.647,168.973,48.213,169.294,48.173,169.462z"/>
		<path style="fill:#5A320A;" d="M50.924,181.247c-1.21,9.984-6.902,18.73-13.046,26.404c-1.787,2.233-3.634,4.416-5.419,6.651
			c-0.323,0.404-0.005,0.692,0.349,0.303c6.868-7.544,13.619-15.902,16.921-25.694c0.877-2.6,1.43-5.262,1.708-7.99
			C51.466,180.632,50.949,181.041,50.924,181.247z"/>
		<path style="fill:#5A320A;" d="M55.419,209.339c-4.811,4.809-8.54,10.59-11.044,16.911c-2.502,6.316-3.782,13.113-3.706,19.908
			c0.043,3.85,0.556,7.676,1.529,11.402c0.09,0.344,0.776-0.268,0.697-0.595c-1.566-6.47-1.838-13.253-0.816-19.829
			c1.02-6.566,3.287-12.921,6.68-18.635c1.917-3.229,4.198-6.245,6.792-8.96C55.704,209.382,55.622,209.136,55.419,209.339z"/>
		<path style="fill:#5A320A;" d="M41.592,258.1c-4.646-6.923-5.047-15.401-3.035-23.298c0.615-2.413,1.432-4.768,2.364-7.076
			c0.082-0.202-0.165-0.065-0.21,0.04c-3.313,7.809-5.392,16.602-2.69,24.916c0.695,2.139,1.711,4.122,3.091,5.899
			C41.245,258.752,41.706,258.272,41.592,258.1z"/>
		<path style="fill:#5A320A;" d="M72.59,209.308c-3.119,6.774-7.495,12.899-11.431,19.205c-3.846,6.162-7.352,12.659-8.933,19.809
			c-0.857,3.878-1.135,7.917-0.341,11.828c0.068,0.335,0.741-0.245,0.706-0.515c-0.466-3.595-0.375-7.215,0.324-10.773
			c0.69-3.512,1.891-6.904,3.369-10.158c2.975-6.55,7.113-12.463,10.853-18.582c2.141-3.503,4.099-7.083,5.713-10.861
			C72.956,209.014,72.649,209.18,72.59,209.308z"/>
		<path style="fill:#5A320A;" d="M70.043,217.289c-4.905,9.439-9.599,19.74-8.242,30.662c0.358,2.879,1.115,5.712,2.492,8.275
			c0.199,0.37,0.873-0.305,0.732-0.622c-2.082-4.702-2.858-9.766-2.453-14.884c0.418-5.27,2.021-10.354,4.018-15.221
			c1.146-2.794,2.413-5.541,3.729-8.259C70.442,216.985,70.11,217.16,70.043,217.289z"/>
		<path style="fill:#5A320A;" d="M86.154,224.828c-0.296-2.393-0.789-4.761-1.512-7.062c-0.047-0.15-0.367,0.154-0.331,0.293
			c2.154,8.305,1.976,17.201-0.778,25.35c-0.769,2.275-1.735,4.482-2.796,6.635c-0.219,0.443,0.363,0.274,0.51,0.022
			C85.596,242.622,87.208,233.346,86.154,224.828z"/>
		<path style="fill:#5A320A;" d="M88.859,226.055c-0.062-2.124-0.269-4.232-0.643-6.324c-0.019-0.107-0.264,0.112-0.256,0.2
			c0.703,7.601,0.29,15.226-1.816,22.589c-0.597,2.087-1.309,4.143-2.117,6.158c-0.21,0.523,0.451,0.234,0.581-0.067
			C87.649,241.549,89.082,233.737,88.859,226.055z"/>
		<path style="fill:#5A320A;" d="M97.965,220.979c-0.018-0.196-0.331,0.09-0.328,0.217c0.167,7.638-0.3,15.461-3.682,22.449
			c-0.891,1.841-1.99,3.596-3.241,5.213c-0.35,0.453,0.018,0.799,0.399,0.347c4.931-5.856,6.815-13.676,7.073-21.178
			C98.266,225.67,98.174,223.326,97.965,220.979z"/>
		<path style="fill:#5A320A;" d="M215.41,91.336c-1.365-6.053-3.454-11.887-6.178-17.458c-0.07-0.144-0.378,0.157-0.32,0.284
			c4.583,9.898,7.163,20.751,7.745,31.632c0.584,10.909-0.868,21.929-4.326,32.296c-1.949,5.844-4.55,11.476-7.699,16.771
			c-0.291,0.49,0.258,0.466,0.477,0.116c5.838-9.326,9.584-19.907,11.306-30.758C218.146,113.318,217.838,102.104,215.41,91.336z"/>
	</g>
	<g>
		<path style="fill:#B4715A;" d="M169.833,154.798c-0.153-2.5-0.389-5.006-0.295-7.494c0.097-2.532,0.436-5.031,1.017-7.433
			c0.582-2.406,1.422-4.698,2.307-6.949c0.456-1.16,0.984-2.254,1.626-3.28c0.526-0.841,1.258-1.477,1.642-2.44
			c0.107-0.269-0.094-0.628-0.347-0.67c-1.313-0.217-2.473,0.158-3.479,0.875c0.016-0.026,0.031-0.053,0.046-0.079
			c0.063-0.134,0.114-0.274,0.18-0.406c1.944-3.892,5.18-7.12,9.213-7.718c1.721-0.255,3.518-0.048,5.171,0.826
			c1.521,0.805,2.832,2.097,3.895,3.6c1.117,1.579,1.99,3.36,2.708,5.198c0.75,1.919,1.388,3.923,1.794,5.951
			c1.001,4.99,0.696,10.23-0.669,14.88c-1.411,4.805-4.06,8.907-7.536,11.887c-1.615,1.384-3.377,2.562-5.256,3.448
			c-1.802,0.849-3.785,1.497-5.805,1.395c-1.918-0.097-3.818-0.947-5.077-2.795c-0.472-0.694-0.863-1.47-1.195-2.285
			C170.032,159.177,169.966,156.985,169.833,154.798z"/>
		<path style="fill:#FDD4B5;" d="M173.158,164.826c1.745,1.146,3.861,0.974,5.65,0.504c1.844-0.484,3.588-1.354,5.215-2.395
			c3.683-2.359,6.758-5.862,8.697-10.206c1.848-4.141,2.673-9.006,2.398-13.818c-0.237-4.147-1.392-8.337-3.19-12.067
			c-1.581-3.279-3.959-6.327-7.249-6.983c-3.989-0.796-7.726,1.713-10.075,5.015c-0.007,0.011-0.014,0.022-0.021,0.032
			c0.058,0.078,0.077,0.17,0.011,0.266c-0.772,1.133-1.461,2.333-2.085,3.579c-0.167,0.414-0.319,0.835-0.463,1.26
			c-0.202,0.379-0.388,0.77-0.563,1.168c-0.742,1.471-1.319,3.064-1.649,4.748c-1.318,5.024-1.73,10.459-1.3,15.811
			c0.214,2.657,0.678,5.293,1.483,7.848C170.643,161.575,171.472,163.719,173.158,164.826z"/>
		<path style="fill:#FDD4B5;" d="M194.099,138.923c-0.491-3.761-1.642-7.634-3.858-10.655c-2.572-3.507-6.248-6.062-10.152-5.777
			c-1.852,0.135-3.553,0.846-5.103,1.876c2.361-3.044,5.913-5.259,9.693-4.505c3.29,0.656,5.668,3.704,7.249,6.983
			c1.798,3.73,2.952,7.92,3.189,12.066c0.2,3.495-0.188,7.015-1.12,10.268C194.48,145.832,194.547,142.354,194.099,138.923z"/>
		<path style="fill:#FDD4B5;" d="M168.535,151.741c-0.43-5.353-0.019-10.787,1.3-15.812c0.33-1.684,0.908-3.277,1.649-4.748
			c0.175-0.398,0.361-0.789,0.563-1.168c0.143-0.426,0.296-0.847,0.463-1.26c0.624-1.245,1.313-2.446,2.085-3.579
			c0.066-0.096,0.047-0.188-0.011-0.266c0.007-0.01,0.014-0.022,0.021-0.032c0.48-0.675,1.021-1.314,1.608-1.902
			c-0.454,0.998-0.83,2.045-1.125,3.096c-0.746,2.656-1.164,5.797-0.239,8.611c0.184,0.559,0.796,0.354,0.879-0.101
			c0.59-3.253,2.415-6.113,5.233-7.04c2.116-0.696,4.494-0.041,6.216,1.79c2.264,2.409,3.006,6.219,3.065,9.502
			c0.063,3.501-0.652,7.123-2.494,9.799c-1.904,2.766-4.834,3.735-7.944,2.975c-0.146-0.036-0.35,0.037-0.423,0.188
			c-1.094,2.293-1.353,5.908,0.456,8.109c1.219,1.484,2.829,2.325,4.533,2.265c0.319-0.011,0.632-0.061,0.941-0.127
			c-0.42,0.313-0.849,0.612-1.287,0.893c-1.626,1.041-3.371,1.911-5.215,2.395c-1.79,0.47-3.906,0.642-5.65-0.504
			c-1.686-1.108-2.514-3.252-3.14-5.238C169.212,157.034,168.748,154.398,168.535,151.741z"/>
		<path style="fill:#B4715A;" d="M177.329,154.662c-0.275-0.615-0.475-1.245-0.484-1.881c0.04-0.233,0.089-0.465,0.153-0.691
			c0.175-0.62,0.436-1.175,0.728-1.706c-0.014-0.017-0.029-0.035-0.044-0.051c0.115-0.194,0.232-0.385,0.352-0.576
			c0.015,0.004,0.032,0.006,0.047,0.012c0.47-0.779,0.974-1.533,1.352-2.388c0.4-0.905,0.685-1.962,0.034-2.895
			c-0.588-0.843-1.362-1.52-2.005-2.308c-1.237-1.519-2.007-3.369-2.127-5.394c-0.212-3.596,1.427-6.678,3.992-8.36
			c2.356-1.545,5.462-2.082,7.862,0.19c1.275,1.208,2.282,2.863,2.967,4.568c0.649,1.616,1.079,3.401,0.827,5.116
			c-0.031,0.212-0.395,0.12-0.382-0.095c0.089-1.471-0.35-3.039-0.902-4.403c-0.61-1.508-1.427-2.943-2.473-4.119
			c-0.951-1.069-2.032-1.781-3.332-1.835c-1.385-0.057-2.726,0.462-3.888,1.203c-2.461,1.569-4.054,4.629-3.743,8.061
			c0.18,1.992,1.001,3.652,2.253,5.093c0.619,0.712,1.353,1.363,1.859,2.192c0.451,0.739,0.495,1.546,0.287,2.351
			c-0.355,1.376-1.136,2.441-1.852,3.557c0.651,0.423,1.385,0.593,2.123,0.668c0.944,0.095,1.926,0.092,2.844-0.09
			c2.051-0.407,4.143-1.893,4.639-4.338c0.023-0.112,0.225-0.064,0.208,0.052c-0.4,2.722-2.385,4.461-4.64,4.977
			c-1.051,0.24-2.201,0.237-3.285,0.099c-0.713-0.091-1.584-0.269-2.294-0.707c-0.153,0.262-0.301,0.527-0.431,0.806
			c-0.357,0.762-0.579,1.588-0.636,2.475C177.327,154.384,177.33,154.523,177.329,154.662z"/>
	</g>
	<g>
		<path style="fill:#FDD4B5;" d="M84.79,51.237c0,0-46.165,9.892-47.133,55.374c-0.968,26.128,8.387,39.675,10,48.707
			s5.161,34.837,23.547,48.385s39.353,24.192,48.707,23.225c9.354-0.968,25.16-14.838,35.805-26.128
			c10.645-11.29,19.676-25.16,18.064-51.933c-1.613-26.773-1.29-64.513-25.483-82.899C128.351,50.809,112.569,46.829,84.79,51.237z"
			/>
		<path style="fill:#B4715A;" d="M118.678,227.23c-9.459,0-28.652-9.358-47.618-23.333c-17.478-12.878-21.602-36.75-23.363-46.943
			c-0.1-0.576-0.192-1.109-0.278-1.594c-0.46-2.578-1.579-5.587-2.875-9.072c-3.299-8.876-7.82-21.032-7.128-39.687
			c0.502-23.593,13.346-37.457,24.032-44.933C73.016,53.577,84.622,51.025,84.738,51c0.005-0.001,0.008-0.001,0.013-0.002
			c27.367-4.342,43.44-0.615,63.692,14.777c22.119,16.811,23.812,49.44,25.173,75.658c0.132,2.546,0.26,5.027,0.405,7.42
			c1.636,27.166-7.747,41.102-18.13,52.115c-11.356,12.043-26.765,25.251-35.956,26.202
			C119.539,227.21,119.118,227.23,118.678,227.23z M84.834,51.475c-0.315,0.07-11.737,2.632-23.123,10.601
			C51.123,69.488,38.397,83.23,37.9,106.616c-0.688,18.563,3.812,30.666,7.098,39.504c1.303,3.506,2.43,6.534,2.898,9.155
			c0.086,0.485,0.179,1.019,0.278,1.597c1.752,10.136,5.853,33.873,23.174,46.635c19.447,14.329,39.842,24.083,48.539,23.179
			c9.058-0.937,24.356-14.072,35.653-26.053c10.307-10.933,19.623-24.77,17.997-51.752c-0.144-2.394-0.273-4.876-0.404-7.424
			c-1.355-26.118-3.043-58.622-24.982-75.297C128.023,50.863,112.048,47.16,84.834,51.475z"/>
	</g>
	<g>
		<path style="fill:#FDD4B5;" d="M173.779,148.867c-1.613-26.773-1.29-64.513-25.483-82.899
			c-19.946-15.159-35.728-19.139-63.507-14.73c0,0-46.165,9.892-47.133,55.374c0,0,7.957-26.558,29.461-35.59
			c6.021,24.945,36.557,39.568,43.439,41.718c0,0-2.15,5.161,1.72,8.602c9.892-5.161,34.995-10.276,53.195,5.184
			c1.856,25.352,6.587,59.329-26.96,85.564c-20.644,18.924-30.106,12.042-62.363-5.161c-0.135,0.009-0.262,0.019-0.396,0.029
			c17.185,11.952,35.567,20.859,44.157,19.971c9.354-0.968,25.16-14.838,35.805-26.128
			C166.36,189.51,175.392,175.639,173.779,148.867z"/>
	</g>
	<path style="fill:#FE9A7A;" d="M92.606,196.93c0,0,4.294,2.991,9.508,0.767c5.214-2.224,5.291-2.684,10.275-2.224
		c0.92,0.153,2.3-2.224,6.518-2.377c4.217-0.153,14.677-0.965,17.767-4.048c-2.431,5.812-9.562,17.39-21.294,19.307
		C104.491,209.966,94.983,199.308,92.606,196.93z"/>
	<path style="fill:#FDD4B5;" d="M116.823,178.421c-1.745,0.403-3.439-0.037-5.049-0.72c-1.819-0.772-3.766-1.889-5.721-0.933
		c-1.333,0.652-2.352,1.842-3.799,2.277c-1.596,0.48-3.404-0.123-4.576-1.265c-0.896-0.874-1.302-1.959-1.357-3.089
		c-1.001,1.276-1.571,2.739-1.571,4.295c0,4.954,5.763,8.969,12.872,8.969c7.109,0,12.872-4.016,12.872-8.969
		c0-0.951-0.216-1.867-0.61-2.728C119.17,177.3,118.177,178.108,116.823,178.421z"/>
	<g>
		<g>
			<path style="fill:#FDD4B5;" d="M90.879,155.49c0,0,1.166-20.946-14.731-27.319c-16.325-6.545-26.435,5.009-27.556,16.474
				C48.252,152.794,66.864,171.919,90.879,155.49z"/>
			<path style="fill:#B4715A;" d="M84.806,136.31c-1.627-2.097-3.605-3.955-5.939-5.242c-5.015-2.764-11.074-2.863-16.426-1.072
				c-3.12,1.044-6.301,2.688-8.658,5.016c-0.057,0.057-0.169,0.358,0.014,0.254c1.226-0.696,2.385-1.5,3.619-2.183
				c1.21-0.669,2.466-1.268,3.757-1.763c2.686-1.029,5.578-1.599,8.459-1.538c2.746,0.058,5.505,0.655,7.969,1.887
				c2.284,1.141,4.282,2.778,5.971,4.684c2.008,2.265,3.384,4.89,4.845,7.515c0.101,0.181,0.399-0.226,0.351-0.371
				C87.912,140.906,86.474,138.46,84.806,136.31z"/>
			<g>
				<path d="M86.548,145.492c-0.623-1.663-1.377-3.257-2.321-4.717c-1.515-2.344-3.433-4.448-5.732-6.042
					c-5.325-3.691-12.088-3.91-18.128-1.978c-3.668,1.173-6.003,0.861-6.003,0.861s1.891,1.192,3.158,1.286
					c-5.19,1.731-8.499,3.396-11.203,2.488c2.865,1.523,4.113,1.41,4.113,1.41s-3.252,3.443-8.017,2.933
					c3.536,1.986,8.074,1.154,8.074,1.154s-2.188,6.494,5.003,11.191c6.381,4.168,13.914,5.391,21.394,4.265
					c4.115-0.619,8.339-1.766,12.134-3.487C88.386,151.774,87.683,148.52,86.548,145.492z"/>
				<path style="fill:#1B0101;" d="M46.398,147.187c1.53-0.027,3.044-0.617,4.188-1.633c-1.013,1.276-2.483,2.181-4.078,2.509
					c1.575,0.089,3.175-0.394,4.438-1.339c-1.075,1.123-2.431,1.975-3.909,2.456c1.603-0.195,3.16-0.765,4.51-1.652
					c-0.708,0.929-1.416,1.859-2.124,2.789c0.744-0.195,1.45-0.538,2.063-1.003c-0.403,0.691-0.927,1.311-1.541,1.823
					c0.84-0.263,1.68-0.527,2.52-0.79c-0.525,0.601-1.05,1.202-1.575,1.803c0.898-0.304,1.796-0.607,2.694-0.911
					c-2.007,1.162-3.687,2.884-4.8,4.92c1.335-1.939,3.337-3.408,5.586-4.1c-2.356,1.926-4.344,4.299-5.828,6.956
					c1.604-2.27,3.783-4.129,6.276-5.356c-0.561,0.78-1.122,1.559-1.683,2.338c0.777-0.826,1.775-1.442,2.861-1.765
					c-0.504,0.764-1.009,1.528-1.514,2.292c0.823-0.693,1.865-1.121,2.937-1.205c-0.316,0.417-0.632,0.835-0.948,1.253
					c0.567-0.423,1.234-0.708,1.93-0.827c-0.507,0.995-1.015,1.99-1.522,2.985c0.563-0.862,1.387-1.551,2.336-1.95
					c1.718-0.465,3.216,0.344,3.759,0.074c-0.682-1.543-4.33-2.369-5.709-3.34c-2.429-1.71-4.341-4.131-5.485-6.869
					c-0.271-0.65-0.364-1.577-0.723-2.159c-0.529-0.857-0.389-0.634-1.073,0.131C48.965,145.755,47.869,146.681,46.398,147.187z"/>
			</g>
			<g>
				<path style="fill:#E4E5E6;" d="M89.09,154.844c0,0-1.853-21.999-22.122-20.899c-12.226,1.261-15.108,8.813-14.987,11.777
					C52.102,148.688,59.263,163.658,89.09,154.844z"/>
				<path style="fill:#D6A174;" d="M72.376,157.83c-7.301,0-12.048-1.99-15.047-4.138c-4.099-2.935-5.536-6.63-5.59-7.96
					c-0.11-2.702,2.446-10.713,15.205-12.028c0.494-0.027,0.979-0.04,1.453-0.04c18.929,0,20.918,20.943,20.936,21.16
					c0.009,0.115-0.063,0.22-0.172,0.253C82.45,157.059,76.918,157.83,72.376,157.83z M68.396,134.149
					c-0.461,0-0.932,0.013-1.414,0.039c-12.377,1.277-14.863,8.941-14.757,11.525c0.05,1.253,1.434,4.755,5.387,7.586
					c4.759,3.408,14.034,6.406,31.217,1.37C88.58,152.552,85.904,134.149,68.396,134.149z"/>
			</g>
			<path style="fill:#FFFFFF;" d="M86.875,153.789c0,0-1.636-19.429-19.538-18.457c-10.798,1.114-13.343,7.783-13.236,10.401
				C54.208,148.352,60.532,161.573,86.875,153.789z"/>
			<g>
				<defs>
					<path id="SVGID_1_" d="M89.09,154.844c0,0-1.853-21.999-22.122-20.899c-12.226,1.261-15.108,8.813-14.987,11.777
						C52.102,148.688,59.263,163.658,89.09,154.844z"/>
				</defs>
				<clipPath id="SVGID_00000005947338052008549180000006970015080653451163_">
					<use xlink:href="#SVGID_1_"  style="overflow:visible;"/>
				</clipPath>
				<g style="clip-path:url(#SVGID_00000005947338052008549180000006970015080653451163_);">
					<g>
						<g>
							<path style="fill:#341100;" d="M61.46,147.8c1.247,5.899,7.037,9.67,12.933,8.422c5.895-1.247,9.663-7.04,8.416-12.939
								c-1.247-5.899-7.037-9.67-12.932-8.422C63.98,136.108,60.212,141.902,61.46,147.8z"/>
							<path style="fill:#643D2A;" d="M62.897,147.496c1.079,5.104,6.09,8.367,11.191,7.288c5.101-1.079,8.362-6.092,7.282-11.196
								c-1.079-5.104-6.09-8.367-11.191-7.288C65.079,137.379,61.818,142.392,62.897,147.496z"/>
							<path style="fill:#250E00;" d="M66.701,146.692c0.635,3.002,3.582,4.922,6.583,4.287c3.001-0.635,4.919-3.584,4.284-6.586
								c-0.635-3.003-3.582-4.922-6.583-4.287C67.984,140.74,66.066,143.689,66.701,146.692z"/>
						</g>
						<path style="fill:#FFFFFF;" d="M73.653,141.006c0.22,1.042,1.243,1.708,2.285,1.488c1.042-0.22,1.707-1.244,1.487-2.286
							c-0.22-1.042-1.243-1.708-2.285-1.488C74.098,138.941,73.433,139.964,73.653,141.006z"/>
						<path style="fill:#FFFFFF;" d="M76.717,144.722c0.131,0.618,0.737,1.012,1.354,0.882c0.617-0.131,1.012-0.737,0.881-1.355
							s-0.737-1.012-1.354-0.882C76.981,143.497,76.587,144.104,76.717,144.722z"/>
						<path style="fill:#8F6548;" d="M65.75,151.497c2.919,3.681,10.047,3.96,13.103-0.27c0.615-0.851,1.542-2.697,0.565-3.603
							c-0.111-0.103-0.458-0.208-0.535,0.004c-0.428,1.17-1.246,2.206-2.295,2.968c-0.91,0.661-2.002,1.107-3.128,1.277
							c-1.195,0.181-2.37-0.029-3.486-0.394c-2.389-0.781-3.577-2.861-4.39-5.213c-0.079-0.228-1.332-0.352-1.362,0.006
							C64.067,148.19,64.787,150.283,65.75,151.497z"/>
					</g>
				</g>
			</g>
		</g>
	</g>
	<g>
		<g>
			<path style="fill:#FDD4B5;" d="M120.66,149.549c0,0-5.264-20.307,9.068-29.684c14.718-9.629,26.904-0.29,30.258,10.731
				C161.923,138.518,147.438,160.932,120.66,149.549z"/>
			<path style="fill:#B4715A;" d="M122.841,129.549c1.182-2.376,2.757-4.587,4.792-6.308c4.373-3.697,10.294-4.986,15.895-4.283
				c3.265,0.41,6.707,1.396,9.476,3.214c0.067,0.044,0.236,0.318,0.036,0.252c-1.339-0.441-2.633-1.002-3.978-1.429
				c-1.318-0.418-2.667-0.758-4.031-0.989c-2.836-0.48-5.783-0.47-8.596,0.156c-2.681,0.597-5.268,1.726-7.442,3.418
				c-2.014,1.568-3.652,3.566-4.933,5.767c-1.523,2.616-2.356,5.46-3.272,8.321c-0.063,0.198-0.436-0.143-0.417-0.294
				C120.701,134.667,121.629,131.985,122.841,129.549z"/>
			<g>
				<path d="M122.94,138.895c0.284-1.753,0.709-3.465,1.347-5.081c1.024-2.596,2.49-5.036,4.431-7.052
					c4.495-4.667,11.082-6.212,17.385-5.507c3.827,0.428,6.055-0.337,6.055-0.337s-1.619,1.541-2.843,1.883
					c5.429,0.676,9.001,1.657,11.474,0.235c-2.509,2.057-3.755,2.191-3.755,2.191s3.866,2.736,8.437,1.298
					c-3.076,2.643-7.689,2.72-7.689,2.72s3.423,5.937-2.703,11.956c-5.436,5.342-12.581,8.024-20.137,8.391
					c-4.157,0.202-8.523-0.091-12.583-1.032C122.373,145.415,122.423,142.086,122.94,138.895z"/>
				<path style="fill:#1B0101;" d="M162.639,132.657c-1.505,0.275-3.106-0.006-4.428-0.777c1.244,1.052,2.863,1.65,4.492,1.658
					c-1.526,0.397-3.191,0.238-4.615-0.439c1.275,0.89,2.772,1.458,4.316,1.639c-1.61,0.125-3.249-0.128-4.747-0.733
					c0.877,0.772,1.754,1.544,2.631,2.316c-0.768-0.045-1.527-0.242-2.22-0.578c0.531,0.598,1.167,1.102,1.869,1.484
					c-0.875-0.093-1.751-0.186-2.626-0.279c0.633,0.486,1.266,0.972,1.899,1.458c-0.94-0.121-1.881-0.242-2.821-0.363
					c2.197,0.745,4.182,2.102,5.674,3.879c-1.69-1.639-3.942-2.685-6.284-2.921c2.689,1.425,5.105,3.361,7.083,5.674
					c-2.019-1.91-4.521-3.304-7.207-4.016c0.703,0.654,1.406,1.308,2.11,1.962c-0.924-0.657-2.024-1.064-3.153-1.168
					c0.645,0.65,1.29,1.299,1.935,1.949c-0.943-0.518-2.049-0.732-3.117-0.604c0.392,0.347,0.784,0.694,1.176,1.042
					c-0.639-0.303-1.349-0.452-2.055-0.431c0.693,0.876,1.386,1.751,2.08,2.627c-0.721-0.735-1.665-1.247-2.674-1.453
					c-1.775-0.118-3.086,0.97-3.671,0.812c0.365-1.647,3.779-3.174,4.94-4.398c2.045-2.154,3.444-4.904,4.027-7.814
					c0.138-0.69,0.046-1.618,0.284-2.259c0.35-0.944,0.257-0.698,1.078-0.082C159.84,131.758,161.097,132.45,162.639,132.657z"/>
			</g>
			<g>
				<path style="fill:#E4E5E6;" d="M122.287,148.564c0,0-2.512-21.933,17.578-24.843c12.235-1.169,16.546,5.668,17.011,8.599
					C157.341,135.25,153.266,151.337,122.287,148.564z"/>
				<path style="fill:#D6A174;" d="M129.112,149.126c-2.118,0-4.395-0.101-6.847-0.32c-0.115-0.01-0.206-0.099-0.219-0.214
					c-0.026-0.222-2.306-22.201,17.784-25.111c12.795-1.224,16.862,6.129,17.286,8.801c0.208,1.314-0.474,5.221-3.914,8.904
					C149.667,144.969,142.691,149.126,129.112,149.126z M122.509,148.341c17.846,1.557,26.342-3.207,30.337-7.485
					c3.319-3.553,3.987-7.259,3.79-8.497c-0.404-2.555-4.345-9.58-16.749-8.395C121.285,126.657,122.332,146.16,122.509,148.341z"/>
			</g>
			<path style="fill:#FFFFFF;" d="M124.252,147.094c0,0-2.218-19.371,15.524-21.94c10.806-1.033,14.613,5.006,15.024,7.594
				C155.21,135.335,151.611,149.542,124.252,147.094z"/>
			<g>
				<defs>
					<path id="SVGID_00000182494113283892575100000018212041578103357077_" d="M122.287,148.564c0,0-2.512-21.933,17.578-24.843
						c12.235-1.169,16.546,5.668,17.011,8.599C157.341,135.25,153.266,151.337,122.287,148.564z"/>
				</defs>
				<clipPath id="SVGID_00000034807538966421563320000015409155860963107980_">
					<use xlink:href="#SVGID_00000182494113283892575100000018212041578103357077_"  style="overflow:visible;"/>
				</clipPath>
				<g style="clip-path:url(#SVGID_00000034807538966421563320000015409155860963107980_);">
					<g>
						<g>
							<path style="fill:#341100;" d="M128.387,137.573c1.345,5.877,7.197,9.552,13.071,8.206c5.874-1.345,9.545-7.2,8.2-13.077
								c-1.345-5.877-7.197-9.552-13.071-8.206C130.713,125.841,127.041,131.695,128.387,137.573z"/>
							<path style="fill:#643D2A;" d="M129.819,137.245c1.164,5.086,6.228,8.265,11.31,7.101c5.083-1.164,8.259-6.23,7.095-11.316
								c-1.164-5.086-6.228-8.265-11.31-7.101C131.832,127.093,128.655,132.159,129.819,137.245z"/>
							<path style="fill:#250E00;" d="M133.609,136.377c0.684,2.992,3.663,4.862,6.653,4.177c2.99-0.685,4.858-3.665,4.174-6.657
								c-0.685-2.992-3.663-4.862-6.653-4.177C134.792,130.405,132.924,133.385,133.609,136.377z"/>
						</g>
						<path style="fill:#FFFFFF;" d="M140.465,130.577c0.238,1.038,1.271,1.688,2.309,1.45c1.038-0.238,1.686-1.272,1.449-2.31
							c-0.238-1.038-1.271-1.687-2.309-1.45C140.876,128.504,140.228,129.539,140.465,130.577z"/>
						<path style="fill:#FFFFFF;" d="M143.591,134.241c0.141,0.616,0.754,1,1.368,0.859c0.615-0.141,0.999-0.754,0.859-1.369
							c-0.141-0.615-0.754-1-1.368-0.859C143.835,133.013,143.45,133.626,143.591,134.241z"/>
						<path style="fill:#8F6548;" d="M132.737,141.198c2.98,3.632,10.111,3.793,13.096-0.487c0.6-0.861,1.497-2.723,0.505-3.612
							c-0.112-0.101-0.461-0.201-0.535,0.013c-0.408,1.176-1.209,2.227-2.245,3.005c-0.899,0.676-1.983,1.14-3.106,1.328
							c-1.191,0.2-2.371,0.01-3.492-0.336c-2.402-0.741-3.624-2.802-4.476-5.139c-0.083-0.227-1.338-0.33-1.361,0.029
							C131,137.919,131.755,140,132.737,141.198z"/>
					</g>
				</g>
			</g>
		</g>
	</g>
	<g>
		<path style="fill:#8E5E25;" d="M80.235,125.642c0,0-26.02-5.376-38.708,0.43c6.666-8.602,30.966-9.247,34.407-7.526
			C79.375,120.266,80.45,125.212,80.235,125.642z"/>
		<path style="fill:#5A320A;" d="M41.528,126.314c-0.072,0-0.143-0.032-0.19-0.092c-0.069-0.088-0.07-0.211-0.001-0.299
			c6.792-8.765,31.194-9.352,34.706-7.595c1.896,0.948,3.023,2.78,3.635,4.15c0.595,1.333,0.964,2.893,0.775,3.272
			c-0.049,0.099-0.151,0.156-0.266,0.129c-0.26-0.054-26.09-5.294-38.557,0.413C41.596,126.307,41.562,126.314,41.528,126.314z
			 M69.363,118.035c-8.249,0-21.655,1.88-26.967,7.404c12.209-4.819,34.935-0.612,37.626-0.087c-0.049-1.04-1.216-5.1-4.196-6.59
			C74.923,118.311,72.52,118.035,69.363,118.035z"/>
	</g>
	<path style="opacity:0.55;fill:#69350F;" d="M75.934,118.546c-0.116-0.058-0.26-0.113-0.422-0.165
		c0.24,0.821,0.059,1.668-0.707,2.234c-1.231,0.91-3.164,0.913-4.623,1.019c-3.879,0.283-7.77-0.024-11.648-0.156
		c-3.821-0.13-7.751-0.143-11.475,0.831c-0.563,0.147-1.116,0.33-1.662,0.531c-1.576,0.925-2.911,1.994-3.87,3.233
		c12.688-5.806,38.708-0.43,38.708-0.43C80.45,125.212,79.375,120.266,75.934,118.546z"/>
	<g>
		<path style="fill:#8E5E25;" d="M113.234,118.07c0,0,23.655-12.1,37.429-9.875c-8.713-6.52-32.31-0.683-35.17,1.891
			C112.634,112.658,112.912,117.712,113.234,118.07z"/>
		<path style="fill:#5A320A;" d="M113.234,118.312c-0.067,0-0.134-0.028-0.18-0.08c-0.455-0.506-0.606-5.731,2.278-8.327
			c2.921-2.628,26.599-8.548,35.476-1.904c0.09,0.067,0.122,0.186,0.079,0.289c-0.044,0.102-0.149,0.164-0.262,0.144
			c-13.539-2.186-37.044,9.731-37.28,9.852C113.31,118.303,113.272,118.312,113.234,118.312z M138.314,105.494
			c-9.703,0-20.791,3.091-22.658,4.771c-2.476,2.228-2.523,6.452-2.294,7.469c2.458-1.223,23.242-11.319,36.296-9.918
			C146.818,106.129,142.707,105.494,138.314,105.494z"/>
	</g>
	<path style="opacity:0.55;fill:#69350F;" d="M119.705,108.181c0.749,0.236,1.597,0.532,2.198,0.997
		c1.283,0.992-0.173,2.54-1.096,3.153c-1.334,0.886-2.945,1.298-4.425,1.87c-1.067,0.412-2.191,0.712-3.263,1.125
		c-0.165,1.437-0.031,2.58,0.116,2.743c0,0,23.655-12.1,37.429-9.875C143.777,103.041,127.599,105.608,119.705,108.181z"/>
	<g>
		<path style="fill:#B4715A;" d="M141.598,183.827c-1.501-0.392-3.135-0.433-4.645-0.078c-0.079,0.018-0.31,0.314-0.179,0.312
			c0.913-0.011,1.831,0.005,2.74,0.102c-0.86,1.576-1.803,3.127-3.014,4.459c-1.29,1.419-2.893,2.497-4.512,3.504
			c-3.156,1.963-6.517,3.602-10.026,4.832c-7.03,2.464-14.643,3.23-21.976,1.778c-1.996-0.395-3.953-0.93-5.867-1.622
			c-1.797-0.65-3.471-1.519-5.197-2.315c0.404-0.108,0.821-0.177,1.244-0.221c0.153-0.016,0.542-0.5,0.295-0.533
			c-1.052-0.137-2.157,0.287-3.001,0.897c-0.471,0.34-0.885,0.742-1.218,1.219c-0.303,0.434-0.561,0.953-0.516,1.497
			c0.011,0.134,0.201-0.066,0.213-0.122c0.205-0.934,0.899-1.705,1.698-2.199c0.227-0.141,0.464-0.25,0.706-0.345
			c1.434,1.069,3.146,1.835,4.791,2.511c1.773,0.729,3.616,1.3,5.485,1.727c3.67,0.839,7.495,1.093,11.248,0.846
			c7.708-0.507,15.195-3.178,21.764-7.188c1.804-1.102,3.589-2.286,5.041-3.839c1.34-1.433,2.37-3.11,3.28-4.839
			c0.372,0.053,0.742,0.12,1.109,0.213c0.664,0.167,1.311,0.418,1.872,0.816c0.498,0.353,0.879,0.815,1.295,1.254
			c0.128,0.135,0.387-0.242,0.357-0.36C144.264,184.833,142.783,184.137,141.598,183.827z"/>
		<path style="fill:#B4715A;" d="M127.958,200.909c-1.133,1.254-2.269,2.485-3.618,3.514c-1.369,1.044-2.889,1.891-4.489,2.527
			c-3.319,1.318-6.969,1.616-10.47,0.934c-2.03-0.395-4.106-1.069-5.936-2.04c-0.063-0.033-0.198,0.131-0.144,0.166
			c1.617,1.035,3.257,1.807,5.126,2.282c1.835,0.466,3.761,0.629,5.65,0.52c3.588-0.207,7.067-1.482,9.975-3.586
			c1.589-1.15,3.105-2.524,4.151-4.198C128.369,200.761,128.126,200.723,127.958,200.909z"/>
	</g>
	<g>
		<path style="fill:#B4715A;" d="M97.982,184.877c-0.613-0.551-1.16-1.21-1.55-1.937c-0.833-1.552-1.078-3.505-0.705-5.226
			c0.005-0.025-0.044,0.016-0.048,0.029c-0.295,0.956-0.424,1.852-0.309,2.855c0.103,0.902,0.379,1.767,0.814,2.563
			c0.388,0.709,0.873,1.35,1.471,1.895c0.631,0.574,1.342,0.931,2.127,1.247c0.035,0.014,0.112-0.092,0.082-0.106
			C99.176,185.875,98.546,185.385,97.982,184.877z"/>
		<path style="fill:#B4715A;" d="M120.58,178.005c-0.028-0.711-0.164-1.439-0.432-2.099c-0.571-1.41-1.733-2.651-3.083-3.353
			c-0.02-0.01,0.035-0.021,0.046-0.016c0.798,0.332,1.464,0.741,2.068,1.37c0.543,0.566,0.965,1.227,1.253,1.956
			c0.257,0.649,0.416,1.325,0.447,2.024c0.033,0.735-0.122,1.405-0.345,2.101c-0.01,0.031-0.123,0.024-0.116-0.004
			C120.584,179.348,120.606,178.659,120.58,178.005z"/>
		<path style="fill:#B4715A;" d="M111.293,184.628c0,0-0.159-3.452,4.726-3.239C113.683,179.583,108.957,181.123,111.293,184.628z"
			/>
		<path style="fill:#B4715A;" d="M104.762,186.274c0,0-2.814-3.027-5.682-2.336C99.452,181.76,103.541,182.61,104.762,186.274z"/>
	</g>
	<path style="fill:#FDD1AB;" d="M113.74,169.898c-5.746-3.275-13.185-1.079-16.657,4.412c-0.108,0.17,0.074,0.135,0.149,0.025
		c1.677-2.43,4.224-4.262,7.087-5.011c3.047-0.798,6.265-0.336,9.082,1.019C113.552,170.416,113.888,169.982,113.74,169.898z"/>
	<path style="fill:#FDD1AB;" d="M105.245,171.099c0.39,0.799-0.589,2.079-2.187,2.859c-1.598,0.78-3.209,0.765-3.6-0.034
		c-0.39-0.799,0.589-2.079,2.187-2.859C103.243,170.285,104.855,170.3,105.245,171.099z"/>
	<path style="fill:#FE9A7A;" d="M100.385,199.19c0,0,19.652-0.217,32.224-7.153C123.505,202.152,107.176,203.886,100.385,199.19z"/>
	<g>
		<path style="opacity:0.55;fill:#FFAD7D;" d="M105.872,202.393c0,0,3.998,1.738,10.082,0c6.084-1.738,1.391,3.998-5.563,3.303
			C103.438,205.001,101.352,201.35,105.872,202.393z"/>
		<path style="opacity:0.55;fill:#FFAD7D;" d="M121.753,201.379c0.238,0.492-0.115,1.155-0.789,1.481
			c-0.674,0.326-1.413,0.19-1.651-0.302c-0.238-0.492,0.115-1.155,0.789-1.481C120.776,200.752,121.515,200.887,121.753,201.379z"/>
	</g>
	<path style="fill:#FDD1AB;" d="M50.89,166.198c0,0,5.859,26.154,28.665,41.428C66.583,203.232,53.192,184.61,50.89,166.198z"/>
	<g>
		
			<radialGradient id="SVGID_00000010305600708438068690000010167378275664890554_" cx="1036.8125" cy="175.9517" r="21.3391" gradientTransform="matrix(-1 0 0 1 1109.4825 0)" gradientUnits="userSpaceOnUse">
			<stop  offset="0" style="stop-color:#F37422"/>
			<stop  offset="1" style="stop-color:#FFFFFF"/>
		</radialGradient>
		<path style="opacity:0.51;fill:url(#SVGID_00000010305600708438068690000010167378275664890554_);" d="M62.203,157.969
			c1.044-0.416,2.125-0.708,3.223-0.888c-0.627,0.247-1.246,0.518-1.854,0.818c-0.324,0.159-0.04,0.642,0.283,0.484
			c1.131-0.557,2.3-1.03,3.504-1.404c0.12-0.037,0.241-0.069,0.362-0.104c0.563-0.009,1.128,0.008,1.692,0.059
			c0.304,0.027,0.345-0.366,0.137-0.509c3.826-0.767,7.811-0.51,11.514,0.797c4.047,1.428,7.693,4.059,10.291,7.478
			c2.466,3.245,4.005,7.226,3.95,11.331c-0.06,4.534-2.132,8.709-5.269,11.915c-3.357,3.431-7.657,5.788-12.286,6.997
			c-4.365,1.141-9.051,1.322-13.45,0.256c-4.208-1.02-8.146-3.267-10.74-6.792c-2.825-3.838-3.935-8.784-3.398-13.484
			c0.551-4.827,2.741-9.537,6.167-12.992C58.002,160.246,59.992,158.851,62.203,157.969z"/>
		<path style="opacity:0.49;fill:#FDD1AB;" d="M58.952,164.255c-0.541,0.541-0.723,1.237-0.406,1.554
			c0.317,0.317,1.013,0.135,1.554-0.406c0.541-0.541,0.723-1.237,0.407-1.554C60.189,163.531,59.493,163.713,58.952,164.255z"/>
	</g>
	<g>
		
			<radialGradient id="SVGID_00000043437871412165180080000005175430828273516182_" cx="911.9362" cy="164.9147" r="21.339" gradientTransform="matrix(1 0 0 1 -764.3091 0)" gradientUnits="userSpaceOnUse">
			<stop  offset="0" style="stop-color:#F37422"/>
			<stop  offset="1" style="stop-color:#FFFFFF"/>
		</radialGradient>
		<path style="opacity:0.51;fill:url(#SVGID_00000043437871412165180080000005175430828273516182_);" d="M158.094,146.932
			c-1.044-0.416-2.124-0.708-3.223-0.888c0.627,0.247,1.247,0.518,1.854,0.818c0.324,0.159,0.04,0.642-0.283,0.484
			c-1.131-0.557-2.3-1.03-3.504-1.404c-0.12-0.037-0.241-0.069-0.362-0.104c-0.563-0.009-1.128,0.008-1.692,0.059
			c-0.304,0.027-0.345-0.366-0.137-0.508c-3.826-0.767-7.811-0.51-11.514,0.797c-4.047,1.428-7.693,4.059-10.291,7.478
			c-2.466,3.245-4.004,7.226-3.95,11.331c0.06,4.535,2.132,8.709,5.269,11.915c3.357,3.431,7.657,5.788,12.286,6.997
			c4.365,1.141,9.051,1.322,13.45,0.256c4.208-1.02,8.146-3.267,10.74-6.792c2.825-3.838,3.935-8.784,3.398-13.485
			c-0.551-4.826-2.741-9.536-6.167-12.992C162.295,149.209,160.305,147.814,158.094,146.932z"/>
		<path style="opacity:0.49;fill:#FDD1AB;" d="M161.346,153.217c0.541,0.542,0.723,1.237,0.406,1.554
			c-0.317,0.317-1.013,0.135-1.554-0.406c-0.541-0.541-0.723-1.237-0.406-1.554C160.108,152.494,160.804,152.676,161.346,153.217z"
			/>
	</g>
	<g>
		<g>
			<path style="fill:#8E5E25;" d="M70.841,62.945c0,0,22.2,44.826,77.912,52.297c9.179,7.258,23.907,8.752,23.907,8.752
				s12.381,12.594,26.469-0.854c5.977-1.281,8.538-5.55,8.538-5.55s-7.875,3.797-15.73,3.204
				c13.042-6.225,15.387-36.656,10.441-50.204c0,0,10.322-5.161,7.311-17.418c-3.011-12.257-10.107-16.343-20.214-18.279
				c0,0-4.408-9.569-15.698-8.924C163.134,11.454,129.91-2.416,106.363,9.519c0,0-21.934-7.096-50.965,14.193
				C38.947,29.84,31.874,36.926,30.685,43.584c-4.874,3.804-5.469,6.776-5.469,6.776S1.745,61.559,7.981,89.945
				c-5.591,9.892-3.871,25.805,0.43,31.611c-0.215,10.967,7.311,18.924,10.752,21.934c2.15,12.903,18.709,17.419,29.891,17.634
				c-0.357-0.534-0.617-5.473-5.166-18.471C39.338,129.655,23.546,81.858,70.841,62.945z"/>
			<path style="fill:#5A320A;" d="M49.054,161.367c-0.002,0-0.003,0-0.005,0c-10.097-0.194-27.774-4.153-30.111-17.75
				c-3.357-2.954-10.95-10.882-10.771-21.982c-4.173-5.735-6.18-21.476-0.442-31.728c-3.203-14.708,1.68-24.729,6.347-30.55
				c4.695-5.856,10.122-8.749,10.937-9.163c0.164-0.602,1.114-3.333,5.455-6.744c1.402-7.523,9.981-14.421,24.817-19.954
				C70.31,12.482,83.404,9.202,91.743,8.39c8.408-0.819,13.817,0.64,14.597,0.868c23.452-11.816,56.544,1.595,67.556,16.462
				c10.577-0.526,15.192,7.873,15.744,8.958c8.608,1.664,17.004,5.077,20.286,18.436c2.376,9.674-3.595,15.667-7.247,17.595
				c4.591,12.934,2.883,42.669-9.847,49.891c7.402,0.245,14.654-3.193,14.73-3.229c0.095-0.045,0.211-0.024,0.284,0.055
				c0.072,0.079,0.084,0.196,0.028,0.288c-0.106,0.178-2.666,4.343-8.629,5.648c-13.559,12.89-25.711,1.807-26.696,0.864
				c-1.22-0.139-15.126-1.855-23.897-8.752c-28.81-3.881-48.483-17.914-59.918-29.008c-11.493-11.15-17.193-21.647-18.009-23.214
				c-19.881,8.016-30.836,22.074-32.562,41.785c-1.438,16.421,4.124,32.312,5.952,37.534c3.363,9.607,4.394,14.865,4.836,17.111
				c0.132,0.674,0.237,1.206,0.303,1.306c0.05,0.075,0.054,0.172,0.011,0.251C49.224,161.318,49.142,161.367,49.054,161.367z
				 M96.75,8.628c-1.512,0-3.18,0.071-4.99,0.248c-8.277,0.81-21.28,4.076-36.22,15.031c-0.018,0.013-0.038,0.024-0.059,0.032
				c-14.747,5.494-23.239,12.302-24.558,19.688c-0.01,0.059-0.043,0.112-0.089,0.149c-4.727,3.69-5.375,6.604-5.381,6.633
				c-0.015,0.074-0.064,0.138-0.133,0.171c-0.058,0.028-5.89,2.858-10.884,9.097c-4.603,5.749-9.418,15.658-6.219,30.217
				c0.013,0.058,0.004,0.119-0.026,0.172c-3.884,6.87-5.455,23.426,0.414,31.348c0.031,0.043,0.048,0.096,0.047,0.149
				c-0.216,11.013,7.389,18.877,10.669,21.747c0.042,0.037,0.07,0.087,0.08,0.143c2.199,13.196,19.282,17.147,29.304,17.423
				c-0.062-0.237-0.129-0.583-0.23-1.097c-0.438-2.235-1.466-7.47-4.818-17.044c-1.836-5.246-7.424-21.212-5.976-37.737
				c1.749-19.977,12.875-34.2,33.07-42.276c0.116-0.047,0.251,0.003,0.307,0.118c0.056,0.112,5.684,11.32,18.029,23.294
				c11.39,11.046,30.993,25.021,59.698,28.87c0.044,0.006,0.084,0.023,0.118,0.05c9.016,7.129,23.635,8.686,23.782,8.701
				c0.056,0.006,0.109,0.031,0.148,0.071c0.499,0.506,12.382,12.261,26.128-0.859c0.032-0.031,0.073-0.053,0.117-0.062
				c4.326-0.927,6.85-3.476,7.862-4.727c-2.244,0.943-8.684,3.335-15.021,2.86c-0.11-0.008-0.2-0.09-0.221-0.197
				c-0.02-0.108,0.035-0.216,0.135-0.263c5.717-2.729,10.029-10.811,11.831-22.175c1.584-9.988,0.99-20.871-1.513-27.727
				c-0.043-0.116,0.009-0.245,0.118-0.3c0.101-0.051,10.112-5.224,7.184-17.144c-3.051-12.422-10.211-16.219-20.023-18.098
				c-0.077-0.015-0.142-0.066-0.174-0.137c-0.045-0.094-4.486-9.401-15.464-8.784c-0.073,0.009-0.161-0.032-0.209-0.099
				c-5.455-7.439-16.469-14.357-28.744-18.056c-14.18-4.273-27.807-3.676-38.367,1.678c-0.058,0.028-0.125,0.034-0.185,0.014
				C106.245,9.735,102.728,8.628,96.75,8.628z"/>
		</g>
		<g>
			<path style="fill:#5A320A;" d="M170.339,110.751c-3.425-1.019-6.669-2.265-9.741-4.114c-3.091-1.861-5.928-4.11-8.587-6.541
				c-5.432-4.967-10.235-10.588-15.432-15.795c-4.966-4.977-10.144-9.753-15.654-14.125c-5.468-4.339-11.27-8.278-17.446-11.541
				c-3.094-1.635-6.28-3.127-9.561-4.348c-3.516-1.308-7.236-2.287-11.016-2.123c-0.94,0.041-1.871,0.172-2.792,0.364
				c-0.088,0.018-0.264,0.284-0.128,0.262c3.786-0.618,7.639,0.014,11.261,1.169c3.504,1.118,6.894,2.659,10.172,4.318
				c6.198,3.136,12.027,6.965,17.517,11.212c5.534,4.281,10.729,8.986,15.701,13.903c5.196,5.139,9.988,10.676,15.235,15.76
				c5.059,4.901,10.82,9.346,17.61,11.517c0.83,0.265,1.663,0.461,2.523,0.601C170.196,111.302,170.582,110.823,170.339,110.751z"/>
			<path style="fill:#5A320A;" d="M198.782,56.715c-2.518-3.249-6.454-5.597-10.642-5.522c-1.863,0.033-4.597,1.048-4.224,3.397
				c0.02,0.125,0.285-0.131,0.284-0.221c-0.003-0.384,0.074-0.705,0.201-0.983c0.538,2.021,0.949,4.022,0.92,6.128
				c-0.03,2.15-0.432,4.302-1.173,6.32c-1.551,4.224-4.507,7.701-8.498,9.8c-4.337,2.28-9.455,3.164-14.321,3.13
				c-4.609-0.031-9.192-0.981-13.473-2.677c-4.804-1.903-9.195-4.81-12.834-8.476c-0.08-0.081-0.319,0.183-0.239,0.275
				c6.372,7.251,15.893,11.323,25.479,11.621c5.003,0.155,10.221-0.691,14.747-2.889c4.147-2.014,7.397-5.374,9.279-9.585
				c1.003-2.243,1.599-4.665,1.744-7.118c0.142-2.397-0.085-5.018-1.097-7.222c1.077-0.89,3.098-0.839,4.38-0.646
				c1.819,0.275,3.557,0.976,5.091,1.985c3.251,2.138,5.413,5.489,6.592,9.151c0.705,2.187,1.022,4.46,1.323,6.731
				c0.05,0.377,0.591-0.138,0.591-0.37C202.912,65.058,201.551,60.288,198.782,56.715z"/>
			<path style="fill:#5A320A;" d="M201.869,71.79c-0.605,2.422-1.107,4.837-1.965,7.19c-0.845,2.318-1.909,4.557-3.231,6.642
				c-2.424,3.821-5.749,7.094-9.767,9.213c-8.907,4.696-19.541,2.228-27.733-2.789c-4.67-2.86-8.804-6.469-12.712-10.284
				c-0.107-0.104-0.414,0.236-0.303,0.349c7.059,7.211,15.257,14.05,25.535,15.687c4.824,0.768,9.845,0.302,14.287-1.804
				c4.129-1.958,7.623-5.076,10.28-8.773c1.641-2.284,2.96-4.799,3.987-7.415c1.029-2.62,1.943-5.455,2.263-8.261
				C202.568,71.037,201.934,71.53,201.869,71.79z"/>
			<path style="fill:#5A320A;" d="M199.832,84.39c-1.548,2.613-2.938,5.305-4.65,7.822c-1.714,2.521-3.654,4.911-5.89,6.989
				c-4.342,4.035-9.837,6.763-15.81,7.125c-3.311,0.2-6.66-0.376-9.626-1.888c-0.147-0.075-0.432,0.286-0.308,0.355
				c5.333,2.97,11.777,2.727,17.332,0.495c5.773-2.319,10.396-6.729,13.996-11.711c2.057-2.847,3.992-5.936,5.358-9.178
				C200.389,84.027,199.948,84.194,199.832,84.39z"/>
			<path style="fill:#5A320A;" d="M201.882,80.208c-0.008-0.119-0.211,0.06-0.207,0.141c0.338,7.263-1.962,14.644-6.3,20.472
				c-1.254,1.684-2.691,3.244-4.248,4.651c-0.206,0.186-0.197,0.573,0.112,0.308c5.618-4.821,9.38-11.84,10.417-19.16
				C201.956,84.496,202.026,82.346,201.882,80.208z"/>
			<path style="fill:#5A320A;" d="M191.751,120.457c-2.515-0.442-5.024-0.907-7.475-1.632c-2.42-0.715-4.774-1.637-7.078-2.664
				c1.575-0.28,3.139-0.626,4.682-1.068c1.421-0.407,2.821-0.885,4.19-1.441c1.389-0.565,2.838-1.174,4.074-2.034
				c0.112-0.078,0.39-0.571,0.063-0.438c-1.216,0.493-2.371,1.135-3.584,1.641c-1.196,0.499-2.417,0.937-3.655,1.318
				c-2.564,0.79-5.203,1.333-7.862,1.69c-5.644,0.758-11.374,0.618-17.034,0.113c-3.279-0.292-6.543-0.73-9.822-1.024
				c-0.073-0.007-0.227,0.19-0.14,0.208c5.721,1.149,11.639,1.795,17.473,1.893c3.785,0.063,7.582-0.167,11.311-0.806
				c-0.049,0.066-0.077,0.141-0.036,0.163c4.439,2.438,9.598,4.081,14.661,4.431C191.646,120.816,191.905,120.484,191.751,120.457z"
				/>
			<path style="fill:#5A320A;" d="M138.448,76.99c-4.405-4.936-9.169-9.539-14.269-13.754c-2.924-2.417-5.965-4.684-9.096-6.826
				c-0.083-0.056-0.274,0.174-0.199,0.229c10.764,7.805,20.453,17.097,28.621,27.591c2.281,2.931,4.404,5.978,6.541,9.014
				c0.101,0.144,0.501-0.263,0.41-0.413C147.027,87.173,142.848,81.92,138.448,76.99z"/>
			<path style="fill:#5A320A;" d="M189.79,34.856c-3.166-0.82-6.31,1.702-7.604,4.418c-1.588,3.333-0.848,7.764,1.267,10.703
				c0.092,0.128,0.406-0.229,0.352-0.355c-1.337-3.102-2.572-6.478-1.357-9.843c1.072-2.968,4.011-4.907,7.153-4.641
				C189.698,35.146,189.915,34.889,189.79,34.856z"/>
			<path style="fill:#5A320A;" d="M201.661,49.507c-2.484-4.425-7.96-8.882-13.025-5.542c-2.275,1.5-3.806,4.052-4.273,6.713
				c-0.023,0.133,0.236-0.059,0.253-0.143c0.499-2.443,1.891-4.767,4.019-6.122c2.355-1.499,5.094-1.201,7.408,0.232
				c4.607,2.854,6.84,8.345,7.422,13.53c0.392,3.493,0.082,6.977-0.125,10.47c-0.021,0.351,0.568-0.098,0.595-0.303
				C204.767,62.11,204.826,55.146,201.661,49.507z"/>
			<path style="fill:#5A320A;" d="M171.163,37.764c-4.289-4.04-9.229-7.352-14.607-9.762c-3.075-1.378-6.281-2.452-9.566-3.205
				c-0.074-0.017-0.217,0.181-0.136,0.201c11.392,2.805,21.682,9.617,28.956,18.794c2.076,2.619,3.87,5.448,5.498,8.364
				c0.081,0.146,0.384-0.163,0.325-0.288C179.145,46.552,175.424,41.779,171.163,37.764z"/>
			<path style="fill:#5A320A;" d="M166.263,30.325c-2.198-1.596-4.558-2.971-7.011-4.134c-0.099-0.047-0.287,0.201-0.209,0.24
				c8.497,4.261,15.61,11.224,20.123,19.584c1.27,2.352,2.324,4.822,3.228,7.336c0.069,0.192,0.462-0.187,0.41-0.36
				C180.07,43.916,173.89,35.863,166.263,30.325z"/>
			<path style="fill:#5A320A;" d="M172.943,24.518c-0.056-0.067-0.251,0.144-0.194,0.223c1.626,2.248,3.002,4.703,4.05,7.272
				c1.025,2.513,1.669,5.139,2.122,7.81c0.034,0.201,0.473-0.179,0.457-0.346C178.85,34.016,176.47,28.692,172.943,24.518z"/>
			<path style="fill:#5A320A;" d="M75.079,57.079c-1.02-2.183-3.065-3.75-5.174-4.814c-2.279-1.151-4.804-1.765-7.332-2.037
				c-5.887-0.633-12.029,0.311-17.624,2.167C33.927,56.051,25.164,63.95,18.26,73.074C14.457,78.1,11.179,83.478,8.152,89
				c-0.081,0.148,0.119,0.038,0.16-0.033c5.542-9.482,11.624-18.959,19.957-26.251c8.773-7.677,20.181-12.393,31.956-11.84
				c2.751,0.129,5.54,0.626,8.088,1.695c2.597,1.09,4.547,2.813,6.259,5.014C74.722,57.778,75.167,57.266,75.079,57.079z"/>
			<path style="fill:#5A320A;" d="M71.906,55.562c-3.614,0.23-7.185,1.159-10.596,2.346c-3.461,1.204-6.797,2.763-9.967,4.599
				c-6.385,3.699-12.042,8.555-16.973,14.026c-4.926,5.465-9.288,11.553-12.768,18.039c-3.556,6.628-6.002,13.843-6.448,21.387
				c-0.487,8.243,1.163,16.464,3.343,24.373c0.265,0.963,0.557,1.917,0.85,2.872c0.031,0.102,0.261-0.113,0.236-0.211
				c-2.005-7.812-3.908-15.691-3.98-23.803c-0.068-7.638,1.788-14.977,5.088-21.841c3.167-6.588,7.377-12.734,12.091-18.308
				c4.679-5.533,10.059-10.513,16.163-14.441c6.093-3.92,12.879-6.753,20.014-8.073c0.911-0.169,1.821-0.348,2.734-0.507
				C71.847,55.991,72.17,55.545,71.906,55.562z"/>
			<path style="fill:#5A320A;" d="M106.815,9.024c-1.351,1.174-2.71,2.313-4.006,3.552c-1.256,1.2-2.48,2.434-3.676,3.693
				c-2.461,2.592-4.762,5.338-6.875,8.221c-4.286,5.85-7.234,12.383-10.31,18.91c-0.885,1.878-1.791,3.747-2.774,5.576
				c-0.985,1.831-2.091,3.585-3.146,5.374c-0.245,0.416,0.16,0.55,0.422,0.213c2.165-2.776,3.76-6.029,5.297-9.182
				c1.579-3.24,3.034-6.539,4.628-9.771c3.19-6.47,7.245-12.338,12.053-17.71c1.319-1.473,2.673-2.913,4.068-4.315
				c1.449-1.456,2.893-2.941,4.392-4.345C107.031,9.107,107.039,8.83,106.815,9.024z"/>
			<path style="fill:#5A320A;" d="M39.913,43.95c-5.666,1.095-11.108,3.299-15.807,6.666c-0.154,0.11-0.314,0.564-0.007,0.364
				c4.774-3.104,10.032-5.421,15.611-6.599C39.866,44.349,40.138,43.907,39.913,43.95z"/>
			<path style="fill:#5A320A;" d="M81.073,43.256c-5.122-3.067-10.67-5.082-16.594-5.898c-5.915-0.815-11.971-0.463-17.75,1.035
				c-3.261,0.845-6.386,2.092-9.328,3.732c-0.153,0.085-0.372,0.614-0.064,0.461c10.559-5.243,22.833-6.353,34.13-2.929
				c3.214,0.974,6.389,2.261,9.289,3.965C80.903,43.71,81.2,43.333,81.073,43.256z"/>
			<path style="fill:#5A320A;" d="M83.489,36.169c-9.353-4.144-20.019-5.085-29.967-2.689c-2.826,0.681-5.575,1.626-8.226,2.817
				c-0.163,0.073-0.422,0.58-0.118,0.451c9.327-3.962,19.917-4.873,29.804-2.692c2.8,0.618,5.559,1.468,8.207,2.568
				C83.352,36.693,83.69,36.258,83.489,36.169z"/>
			<path style="fill:#5A320A;" d="M80.528,33.021c-7.695-5.195-17.885-6.267-26.681-3.552c-2.492,0.769-4.88,1.879-7.095,3.255
				c-0.104,0.065-0.209,0.35-0.011,0.229c7.795-4.754,17.71-5.65,26.334-2.782c2.464,0.82,4.831,1.956,7.03,3.336
				C80.302,33.631,80.706,33.141,80.528,33.021z"/>
			<path style="fill:#5A320A;" d="M89.428,21.149c-9.525-1.595-19.379-1.126-28.764,1.11c-2.652,0.632-5.213,1.474-7.773,2.4
				c-0.097,0.035-0.265,0.328-0.077,0.266c8.963-2.967,18.575-4.307,28.003-3.95c2.764,0.105,5.528,0.338,8.27,0.699
				C89.296,21.702,89.661,21.188,89.428,21.149z"/>
			<path style="fill:#5A320A;" d="M159.152,16.37c-7.242-5.576-16.553-7.574-25.538-7.688c-4.551-0.057-9.112,0.36-13.59,1.167
				c-4.266,0.769-8.5,1.92-12.45,3.727c-4.353,1.991-8.312,4.782-11.316,8.539c-0.142,0.178-0.013,0.298,0.136,0.118
				c5.573-6.732,14.14-10.007,22.51-11.594c8.61-1.633,17.726-1.951,26.287,0.126c4.846,1.175,9.487,3.189,13.593,6.028
				C158.945,16.904,159.301,16.484,159.152,16.37z"/>
			<path style="fill:#5A320A;" d="M172.692,27.135c-5.094-5.453-11.574-9.467-18.582-11.977c-0.13-0.047-0.397,0.303-0.24,0.362
				c6.949,2.617,13.168,6.849,18.434,12.061C172.444,27.721,172.835,27.288,172.692,27.135z"/>
			<path style="fill:#5A320A;" d="M132.624,101.674c-8.61-3.326-17.803-9.807-24.171-16.439c-3.436-3.578-6.552-7.452-9.487-11.447
				c-2.901-3.949-5.54-8.072-8.362-12.074c-2.909-4.125-6.849-8.057-12.274-7.792c-0.07,0.004-0.191,0.208-0.121,0.207
				c4.773-0.073,8.585,3.596,11.229,7.172c1.46,1.975,2.772,4.059,4.148,6.093c1.36,2.012,2.74,4.011,4.159,5.983
				c5.561,7.727,11.801,15.093,19.524,20.745c4.084,2.989,8.514,5.466,13.346,7.007
				C130.802,101.188,132.849,101.761,132.624,101.674z"/>
			<path style="fill:#5A320A;" d="M108.878,91.995c-9.267-6.531-19.234-16.846-24.675-26.834c-1.515-2.781-2.828-5.667-3.936-8.633
				c-0.046-0.124-0.322,0.134-0.281,0.25c3.805,10.66,10.254,20.353,18.708,27.891c2.403,2.142,4.945,4.081,7.673,5.79
				C106.552,90.574,109.046,92.114,108.878,91.995z"/>
			<path style="fill:#5A320A;" d="M35.771,93.576c3.512-5.544,7.753-10.598,12.001-15.585c0.125-0.147,0.018-0.243-0.112-0.098
				c-7.762,8.64-15.434,17.879-18.88,29.179c-3.146,10.319-2.622,21.525,0.692,31.734c1.858,5.723,4.562,11.261,8.257,16.026
				c0.178,0.229,0.766-0.382,0.614-0.61c-2.957-4.42-5.515-9.088-7.349-14.088c-1.835-5.003-2.985-10.258-3.349-15.576
				c-0.356-5.205,0.041-10.468,1.293-15.537C30.298,103.51,32.742,98.357,35.771,93.576z"/>
			<path style="fill:#5A320A;" d="M47.391,153.784c-5.895-4.212-10.455-9.933-12.765-16.842c-0.645-1.929-1.093-3.917-1.343-5.935
				c-0.012-0.096-0.259,0.103-0.25,0.196c0.704,7.213,3.937,14.069,9.047,19.209c1.477,1.486,3.083,2.786,4.873,3.875
				C47.157,154.411,47.578,153.917,47.391,153.784z"/>
			<path style="fill:#5A320A;" d="M170.225,65.069c-8.776-8.084-19.321-14.246-30.506-18.351c-11.211-4.115-23.571-6.461-35.522-5.2
				c-6.562,0.692-13.058,2.518-18.733,5.941c-0.055,0.034-0.155,0.249-0.035,0.182c10.646-5.861,23.112-6.784,34.966-5.093
				c11.648,1.662,23,5.644,33.22,11.458c5.769,3.282,11.192,7.182,16.227,11.502C169.994,65.639,170.374,65.206,170.225,65.069z"/>
			<path style="fill:#5A320A;" d="M166.669,47.565c-7.291-7.136-16.496-12.229-26.327-14.9c-10.231-2.779-21.102-2.787-31.358-0.122
				c-5.76,1.497-11.272,3.813-16.342,6.93c-0.095,0.058-0.195,0.315-0.011,0.208c9.222-5.355,19.752-8.331,30.418-8.517
				c10.246-0.179,20.464,2.335,29.516,7.123c4.967,2.627,9.581,5.921,13.706,9.735C166.423,48.162,166.822,47.714,166.669,47.565z"
				/>
		</g>
		<g>
			<path style="opacity:0.55;fill:#69350F;" d="M191.939,120.795c13.042-6.225,15.387-36.656,10.441-50.204
				c0,0,10.322-5.161,7.311-17.418c-3.011-12.257-10.107-16.343-20.214-18.279c0,0-4.408-9.569-15.698-8.924
				c-0.29-0.395-0.603-0.789-0.925-1.182c0.22,2.757-0.933,4.156-3.89,2.087c-6.562-4.594-15.421-5.906-15.421-5.906
				c11.484,4.922,17.062,13.453,17.062,13.453s-15.421-9.515-19.359-8.531c37.405,16.406,30.186,40.358,10.171,31.827
				c12.796,18.046-10.499,20.999-26.249,7.547c-20.999-19.687-41.014-17.062-36.749-19.687c4.266-2.625,32.155,0.656,52.17,5.906
				c-22.64-14.765-50.529-12.468-47.576-14.437c2.953-1.969,12.14-6.562,41.998-3.281c-16.734-8.531-43.311-8.531-40.358-13.125
				c2.953-4.594,13.453-9.515,35.764-11.812c-18.046-2.297-28.874,3.281-28.546,0.984c0.743-1.485,4.333-3.063,8.57-4.453
				c-4.892,0.588-9.656,1.918-14.079,4.16c0,0-10.569-3.409-26.737,1.614c6.475-1.185,13.149-1.344,17.266,1.481
				c1.788,0.993-21.495,6.582-27.301,8.195c18.064-0.968,18.064,7.096,18.064,7.096s-22.579-5.806-36.45,1.936
				c18.386-3.226,28.901,3.667,28.901,3.667s-21.04-3.656-34.809,2.79c0,0,25.262-5.489,31.713,4.188c0,0-22.52-8.7-40.261,2.267
				c16.773-4.839,23.81-2.267,34.778,2.894c3.548,2.58-39.353-8.709-58.384,33.224c19.676-20.322,31.289-26.45,42.256-25.483
				c-19.999,10.967-38.876,27.727-40.244,62.571C25.077,89.192,36.044,72.419,52.817,65c-25.805,28.386-37.095,53.868-22.58,81.931
				c5.318,8.297,1.937,10.417-3.202,8.033c6.335,4.283,15.18,6.028,22.018,6.16c-0.357-0.534-0.617-5.473-5.166-18.471
				c-4.549-12.998-20.341-60.795,26.954-79.708c0,0,22.2,44.826,77.912,52.297c9.179,7.258,23.907,8.752,23.907,8.752
				s12.381,12.594,26.469-0.854c5.977-1.281,8.538-5.55,8.538-5.55S199.793,121.388,191.939,120.795z"/>
		</g>
		<path style="fill:#8E5E25;" d="M149.909,80.483c0,0,32.902,13.548,39.676-22.257c0.968-7.419,17.741,1.613,7.096,21.289
			C186.036,99.192,165.392,93.385,149.909,80.483z"/>
		<path style="fill:#8E5E25;" d="M91.202,56.613c0,0,23.87,10.645,42.256,30.966c13.225,13.548,25.022,22.544,36.542,23.691
			C151.845,114.352,107.008,93.385,91.202,56.613z"/>
		<path style="fill:#8E5E25;" d="M87.332,62.097c0,0,16.451,30.644,48.707,44.191C116.04,104.675,95.396,84.999,87.332,62.097z"/>
		<path style="fill:#8E5E25;" d="M187.641,48.873c0,0,9.368-3.123,14.572,10.617C202.838,50.33,193.054,37.84,187.641,48.873z"/>
		<path style="fill:#8E5E25;" d="M184.518,45.959c0,0,1.874-5.621,9.576-4.163c7.702,1.457,11.033,10.201,11.658,20.193
			c6.245-4.372,2.082-18.527-5.204-21.858C193.262,36.799,185.143,34.925,184.518,45.959z"/>
		<path style="fill:#8E5E25;" d="M154.748,92.418c0,0,18.386,15.806,37.095,1.29C181.843,104.675,167.005,110.804,154.748,92.418z"
			/>
		<path style="fill:#8E5E25;" d="M174.424,109.836c0,0,16.451-1.29,24.192-19.999C194.746,103.707,191.52,110.159,174.424,109.836z"
			/>
	</g>
	<path style="fill:#8E5E25;" d="M184.467,212.18c0,0-1.373,30.542,27.454,43.24C196.135,259.194,177.604,244.781,184.467,212.18z"/>
	<path style="fill:#8E5E25;" d="M29.593,68.87c0,0-18.386,19.999-16.773,49.998C7.981,103.707,6.368,85.321,29.593,68.87z"/>
	<path style="fill:#8E5E25;" d="M55.072,43.972c0,0-38.644,6.744-45.024,33.905C14.24,57.643,27.729,43.79,55.072,43.972z"/>
	<path style="fill:#8E5E25;" d="M36.582,81.988c0,0-23.655,20.429-12.043,62.147C15.722,127.792,12.497,101.987,36.582,81.988z"/>
	<path style="fill:#8E5E25;" d="M102.815,65.967c0,0,21.934,27.741,45.804,37.095C127.652,102.417,106.363,78.225,102.815,65.967z"
		/>
	<path style="fill:#8E5E25;" d="M161.257,83.773c0,0,23.612,5.199,29.678-21.879c0,0,1.083,12.781-5.632,17.764
		c10.615-4.333,9.965-13.864,9.965-13.864S197.65,96.338,161.257,83.773z"/>
	<path style="fill:#8E5E25;" d="M111.735,22.149c0,0,27.042,2.359,47.551,15.79c-3.448-3.63-10.708-8.53-14.701-10.527
		c-3.993-1.996,8.349,2.541,2.904-0.363c-5.445-2.904,5.808-3.993-0.726-5.989c-6.534-1.996-2.541-4.9,11.253-1.089
		c-8.167-5.263-22.505-10.163-35.572-6.897c13.612,0,13.43,3.993,8.53,3.63c-4.9-0.363,7.623,4.719,0.363,3.448
		c-7.26-1.27,8.167,3.811-3.085,1.452S111.735,22.149,111.735,22.149z"/>
	<path style="fill:#8E5E25;" d="M116.491,37.825c0,0,20.735,1.208,40.462,15.903c0,0-3.221-4.831-7.851-8.253
		s6.24,1.409,2.818-1.812c-3.422-3.221,1.409-1.409,7.65,2.617c-5.838-9.059-17.916-12.28-28.988-12.682
		c10.065,2.013,7.046,4.429,4.429,3.825c-2.617-0.604,10.87,5.838,2.013,2.818C128.167,37.221,116.491,37.825,116.491,37.825z"/>
	<path style="fill:#8E5E25;" d="M222.908,128.619c0,0,0.916,19.005-9.388,40.529c-6.411,12.823-8.93,25.187-8.93,25.187
		s-1.832-5.495,2.977-16.944c4.809-11.449-2.977,2.061-2.977-3.663c0-5.724-6.64,3.435-9.159,12.823
		c3.893-19.005,6.411-25.645,14.196-36.407s8.701-20.608,9.388-22.439c-1.145,10.991-6.64,21.753-4.121,18.318
		c2.519-3.435,0.458,8.243,3.206,2.748C220.847,143.274,222.908,128.619,222.908,128.619z"/>
	<path style="fill:#8E5E25;" d="M223.559,195.11c0,0,4.574,5.228,18.733,12.198c14.159,6.971,23.961,18.298,26.575,26.357
		c-6.535-9.367-11.727-15.189-27.932-23.444C223.84,201.513,223.559,195.11,223.559,195.11z"/>
	<path style="fill:#8E5E25;" d="M36.717,220.327c0,0-15.547,16.96-10.247,36.747C18.873,245.945,22.407,228.631,36.717,220.327z"/>
	<path style="fill:#8E5E25;" d="M201.831,207.948c0,0-3.046,17.766,21.319,32.994C210.206,239.672,194.978,225.714,201.831,207.948z
		"/>
</g>
</svg>
